<svg xmlns="http://www.w3.org/2000/svg" version="1.1" xmlns:xlink="http://www.w3.org/1999/xlink" xmlns:svgjs="http://svgjs.dev/svgjs" width="1500" height="1500" viewBox="0 0 1500 1500"><rect width="1500" height="1500" fill="#ffffff"></rect><g transform="matrix(0.6666666666666666,0,0,0.6666666666666666,250.31078804673143,268.05721997300947)"><svg viewBox="0 0 256 247" data-background-color="#ffffff" preserveAspectRatio="xMidYMid meet" height="1447" width="1500" xmlns="http://www.w3.org/2000/svg" xmlns:xlink="http://www.w3.org/1999/xlink"><g id="tight-bounds" transform="matrix(1,0,0,1,-0.07956173996325333,-0.09999999999999432)"><svg viewBox="0 0 256.1591234799265 247.2" height="247.2" width="256.1591234799265"><g><svg viewBox="0 0 397.4975999999999 383.59518640256465" height="247.2" width="256.1591234799265"><g><rect width="397.4975999999999" height="8.317967155638613" x="0" y="203.09544252381585" fill="#1c70ec" opacity="1" stroke-width="0" stroke="transparent" fill-opacity="1" class="rect-qz-0" data-fill-palette-color="primary" rx="1%" id="qz-0" data-palette-color="#1c70ec"></rect></g><g><rect width="397.4975999999999" height="8.317967155638613" x="0" y="222.30080124442645" fill="#1c70ec" opacity="1" stroke-width="0" stroke="transparent" fill-opacity="1" class="rect-qz-1" data-fill-palette-color="primary" rx="1%" id="qz-1" data-palette-color="#1c70ec"></rect></g><g transform="matrix(1,0,0,1,0.9887999999999693,252.39355153000906)"><svg viewBox="0 0 395.52 131.20163487255556" height="131.20163487255556" width="395.52"><g id="textblocktransform"><svg viewBox="0 0 395.52 131.20163487255556" height="131.20163487255556" width="395.52" id="textblock"><g><svg viewBox="0 0 395.52 92.23632698768198" height="92.23632698768198" width="395.52"><g transform="matrix(1,0,0,1,0,0)"><svg width="395.52" viewBox="0.05 -29.54 174.39999999999998 40.67" height="92.23632698768198" data-palette-color="#1c70ec"><path d="M8.35 0L0.15 0 0.05-1.86 2.44-2.54 12.5-27.83 15.33-29.54 25.98-2.54 28.42-1.86 28.27 0 18.41 0 18.31-1.86 21.29-2.54 18.41-9.77 17.87-11.28 12.55-24.56 13.67-25.2 8.59-11.28 8.06-9.81 5.47-2.54 8.45-1.86 8.35 0ZM6.98-9.03L6.98-9.03 6.98-11.62Q7.91-11.57 9.52-11.52 11.13-11.47 13.48-11.47L13.48-11.47Q15.77-11.47 17.41-11.52 19.04-11.57 19.92-11.62L19.92-11.62 19.92-9.03Q18.26-9.08 16.63-9.11 14.99-9.13 13.48-9.13L13.48-9.13Q12.01-9.13 10.42-9.11 8.84-9.08 6.98-9.03ZM39.55 11.13L39.55 11.13Q35.06 11.13 32.42 9.67 29.78 8.2 29.78 5.76L29.78 5.76Q29.78 4.1 31.1 2.69 32.42 1.27 35.35-0.2L35.35-0.2 37.2 0.2Q35.59 1.17 34.71 2.39 33.84 3.61 33.84 5.03L33.84 5.03Q33.84 6.98 35.4 8.06 36.96 9.13 39.74 9.13L39.74 9.13Q42.87 9.13 44.85 7.76 46.82 6.4 46.82 4.25L46.82 4.25Q46.82 2.59 45.65 1.78 44.48 0.98 41.7 0.78L41.7 0.78 36.47 0.34 35.74 0.15Q33.98 0.15 32.71-0.81 31.44-1.76 31.44-3.13L31.44-3.13Q31.44-4.44 32.71-5.71 33.98-6.98 36.23-7.96L36.23-7.96 36.86-6.98Q35.94-6.35 35.5-5.83 35.06-5.32 35.06-4.83L35.06-4.83Q35.06-4.15 35.67-3.69 36.28-3.22 37.4-3.08L37.4-3.08 43.7-2.44Q47.07-2.1 48.83-0.73 50.58 0.63 50.58 3.17L50.58 3.17Q50.58 5.42 49.12 7.23 47.65 9.03 45.16 10.08 42.67 11.13 39.55 11.13ZM39.94-6.05L39.94-6.05Q37.35-6.05 35.32-6.98 33.3-7.91 32.18-9.57 31.05-11.23 31.05-13.28L31.05-13.28Q31.05-15.63 32.22-17.43 33.4-19.24 35.4-20.29 37.4-21.34 39.89-21.34L39.89-21.34Q42.38-21.34 44.33-20.36 46.29-19.38 47.43-17.65 48.58-15.92 48.58-13.72L48.58-13.72Q48.58-11.57 47.43-9.84 46.29-8.11 44.31-7.08 42.33-6.05 39.94-6.05ZM40.18-8.01L40.18-8.01Q42.19-8.01 43.36-9.47 44.53-10.94 44.53-13.38L44.53-13.38Q44.53-16.16 43.23-17.8 41.94-19.43 39.84-19.43L39.84-19.43Q37.84-19.43 36.57-17.9 35.3-16.36 35.3-13.82L35.3-13.82Q35.3-11.28 36.64-9.64 37.99-8.01 40.18-8.01ZM51.51-20.95L51.51-17.82 45.7-18.21 43.8-20.17 51.51-20.95ZM65.23 0L53.95 0 53.8-1.76 56.83-2.49Q56.88-2.73 56.93-3.34 56.98-3.96 57-5.05 57.03-6.15 57.03-7.71L57.03-7.71 57.08-11.52Q57.08-13.13 56.95-14.72 56.83-16.31 56.68-17.19L56.68-17.19 53.56-17.87 53.56-19.48 60.1-21.29 60.79-20.61 60.59-16.5 60.74-16.46Q62.2-19.29 63.69-20.29 65.18-21.29 66.55-21.29L66.55-21.29Q67.67-21.29 68.43-20.7 69.18-20.12 69.18-19.04L69.18-19.04Q69.18-17.92 68.38-17.29 67.57-16.65 66.35-16.65L66.35-16.65Q65.47-16.65 64.67-17.04 63.86-17.43 63.13-18.12L63.13-18.12 64.01-17.82Q63.13-17.24 62.3-16.16 61.47-15.09 60.74-13.57L60.74-13.57 60.79-9.03Q60.83-7.81 60.88-6.52 60.93-5.22 60.98-4.13 61.03-3.03 61.08-2.49L61.08-2.49 65.33-1.86 65.23 0ZM81.58 0.39L81.58 0.39Q78.41 0.39 76.04-0.98 73.67-2.34 72.36-4.81 71.04-7.28 71.04-10.45L71.04-10.45Q71.04-13.77 72.48-16.21 73.92-18.65 76.38-20.02 78.85-21.39 81.78-21.39L81.78-21.39Q84.81-21.39 87.05-20.04 89.3-18.7 90.57-16.28 91.84-13.87 91.84-10.64L91.84-10.64Q91.84-7.57 90.47-5.05 89.1-2.54 86.78-1.07 84.47 0.39 81.58 0.39ZM82.07-1.9L82.07-1.9Q83.73-1.9 84.95-2.91 86.17-3.91 86.86-5.69 87.54-7.47 87.54-9.77L87.54-9.77Q87.54-13.96 85.81-16.58 84.07-19.19 81.24-19.19L81.24-19.19Q78.61-19.19 77.02-17.02 75.43-14.84 75.43-11.18L75.43-11.18Q75.43-8.45 76.29-6.35 77.14-4.25 78.65-3.08 80.17-1.9 82.07-1.9ZM110.88 0.44L110.88 0.44Q106.63 0.44 103.33-1.42 100.04-3.27 98.18-6.59 96.33-9.91 96.33-14.21L96.33-14.21Q96.33-18.51 98.21-21.88 100.09-25.24 103.43-27.17 106.78-29.1 110.98-29.1L110.98-29.1Q115.08-29.1 118.2-27.25 121.33-25.39 123.11-22.12 124.89-18.85 124.89-14.55L124.89-14.55Q124.89-11.28 123.77-8.54 122.65-5.81 120.69-3.78 118.74-1.76 116.23-0.66 113.71 0.44 110.88 0.44ZM111.32-2.2L111.32-2.2Q114-2.2 115.93-3.56 117.86-4.93 118.91-7.45 119.96-9.96 119.96-13.38L119.96-13.38Q119.96-17.33 118.74-20.31 117.52-23.29 115.4-24.98 113.27-26.66 110.39-26.66L110.39-26.66Q106.24-26.66 103.82-23.56 101.41-20.46 101.41-15.14L101.41-15.14Q101.41-11.33 102.68-8.42 103.95-5.52 106.19-3.86 108.44-2.2 111.32-2.2ZM138.85 0L128.84 0 128.75-1.76 131.77-2.49Q131.82-2.83 131.85-3.42 131.87-4 131.92-5.03 131.97-6.05 131.97-7.71L131.97-7.71 132.02-11.47Q132.02-13.09 131.9-14.7 131.77-16.31 131.63-17.19L131.63-17.19 128.5-17.87 128.5-19.48 135.05-21.29 135.88-20.51 135.63-17.92 135.78-17.87Q137.49-19.73 139.15-20.56 140.81-21.39 142.76-21.39L142.76-21.39Q144.57-21.39 146.15-20.48 147.74-19.58 148.74-17.7 149.74-15.82 149.74-12.99L149.74-12.99 149.74-7.57Q149.74-5.81 149.82-4.39 149.89-2.98 150.04-2.49L150.04-2.49 153.06-1.76 152.92 0 143.1 0 143.01-1.76 145.84-2.49Q145.89-2.88 145.93-3.47 145.98-4.05 146.01-4.98 146.03-5.91 146.03-7.23L146.03-7.23 146.03-12.5Q146.03-14.7 145.28-15.99 144.52-17.29 143.4-17.85 142.27-18.41 141.1-18.41L141.1-18.41Q139.49-18.41 138.12-17.63 136.76-16.85 135.73-15.38L135.73-15.38 135.73-8.06Q135.73-5.76 135.8-4.39 135.88-3.03 135.97-2.49L135.97-2.49 139-1.76 138.85 0ZM166.29 0.39L166.29 0.39Q163.46 0.39 161.17-0.88 158.87-2.15 157.55-4.52 156.24-6.88 156.24-10.11L156.24-10.11Q156.24-13.57 157.65-16.11 159.07-18.65 161.36-20.04 163.66-21.44 166.29-21.39L166.29-21.39Q170.1-21.34 172.25-18.87 174.4-16.41 174.4-11.82L174.4-11.82 174.4-10.94 159.41-10.94 159.41-13.09 171.18-13.09 170.64-12.45 170.64-13.48Q170.64-16.26 169.39-17.8 168.15-19.34 165.9-19.34L165.9-19.34Q164.54-19.34 163.27-18.53 162-17.72 161.22-16.09 160.43-14.45 160.43-11.96L160.43-11.96 160.43-11.38Q160.43-7.37 162.41-5.13 164.39-2.88 167.51-2.88L167.51-2.88Q169.27-2.88 170.61-3.54 171.96-4.2 173.23-5.76L173.23-5.76 174.45-4.64Q173.08-2.1 170.98-0.85 168.88 0.39 166.29 0.39Z" opacity="1" transform="matrix(1,0,0,1,0,0)" fill="#1c70ec" class="wordmark-text-0" data-fill-palette-color="primary" id="text-0"></path></svg></g></svg></g><g transform="matrix(1,0,0,1,75.54432,114.01111011762599)"><svg viewBox="0 0 244.43135999999998 17.190524754929577" height="17.190524754929577" width="244.43135999999998"><g transform="matrix(1,0,0,1,0,0)"><svg width="244.43135999999998" viewBox="1.98 -36.06 519.98 36.57" height="17.190524754929577" data-palette-color="#5a7443"><path d="M27.59 0L1.98 0 1.98-3.08 5.96-3.76 5.96-31.76 1.98-32.45 1.98-35.55 5.96-35.55 10.77-35.55 14.75-35.55 14.75-32.45 10.77-31.76 10.77-3.69 23.34-3.69 23.9-9.3 27.59-9.3 27.59 0ZM58.59 0L31.52 0 31.52-3.08 35.5-3.76 35.5-31.76 31.52-32.45 31.52-35.55 57.83-35.55 57.83-27 53.98-27 53.44-31.84 40.31-31.84 40.31-20.26 53.42-20.26 53.42-16.48 40.31-16.48 40.31-3.61 54.22-3.61 54.76-8.52 58.59-8.52 58.59 0ZM85.42 0L72.65 0 72.65-3.08 76.63-3.76 76.63-31.91 68.57-31.91 67.87-26.98 64.25-26.98 64.25-35.55 93.79-35.55 93.79-26.98 90.23-26.98 89.5-31.91 81.44-31.91 81.44-3.76 85.42-3.08 85.42 0ZM110.64 0.51L110.64 0.51Q107.39 0.51 104.39-0.44 101.38-1.39 98.65-3.37L98.65-3.37 98.65-10.96 102.39-10.96 103.19-5.37Q104.78-4.39 106.63-3.86 108.49-3.32 110.64-3.32L110.64-3.32Q113.08-3.32 114.78-4.06 116.47-4.81 117.38-6.13 118.28-7.45 118.28-9.2L118.28-9.2Q118.28-10.84 117.5-12.08 116.72-13.33 114.92-14.27 113.13-15.21 110.03-15.92L110.03-15.92Q106.36-16.77 103.84-18.2 101.31-19.63 100-21.67 98.7-23.71 98.7-26.34L98.7-26.34Q98.7-29.13 100.18-31.32 101.65-33.52 104.29-34.79 106.93-36.06 110.44-36.06L110.44-36.06Q114.18-36.06 117.05-34.92 119.91-33.79 121.77-32.18L121.77-32.18 121.77-25.07 118.03-25.07 117.23-30.15Q116.13-31.03 114.49-31.62 112.86-32.2 110.44-32.2L110.44-32.2Q108.39-32.2 106.83-31.48 105.27-30.76 104.39-29.47 103.51-28.17 103.51-26.42L103.51-26.42Q103.51-24.88 104.3-23.73 105.1-22.58 106.89-21.72 108.68-20.85 111.69-20.09L111.69-20.09Q117.3-18.7 120.2-15.98 123.09-13.26 123.09-9.25L123.09-9.25Q123.09-6.4 121.55-4.19 120.01-1.98 117.22-0.73 114.42 0.51 110.64 0.51ZM149.6 0L139.42 0 139.42-3.08 142.05-3.44 154.48-35.55 158.61-35.55 170.81-3.44 173.43-3.08 173.43 0 163.22 0 163.22-3.08 165.91-3.54 163.56-10.08 149.33-10.08 146.91-3.54 149.6-3.08 149.6 0ZM156.14-28.56L150.82-14.11 162.1-14.11 156.87-28.56 156.58-29.37 156.43-29.37 156.14-28.56ZM189.88 0L177.11 0 177.11-3.08 181.09-3.76 181.09-31.76 177.11-32.45 177.11-35.55 189.88-35.55 189.88-32.45 185.9-31.76 185.9-3.76 189.88-3.08 189.88 0ZM206.92 0L194.15 0 194.15-3.08 198.13-3.76 198.13-31.76 194.15-32.45 194.15-35.55 198.13-35.55 204.55-35.55 216-8.57 216.14-8.57 227.23-35.55 237.95-35.55 237.95-32.45 233.97-31.76 233.97-3.76 237.95-3.08 237.95 0 225.18 0 225.18-3.08 229.38-3.76 229.38-14.06 229.38-28.98 229.25-29 217.71-1.27 214.51-1.27 202.57-28.96 202.45-28.93 202.62-14.06 202.62-3.76 206.92-3.08 206.92 0ZM276.17 0L263.41 0 263.41-3.08 267.38-3.76 267.38-31.91 259.33-31.91 258.62-26.98 255.01-26.98 255.01-35.55 284.55-35.55 284.55-26.98 280.98-26.98 280.25-31.91 272.19-31.91 272.19-3.76 276.17-3.08 276.17 0ZM302.78 0.51L302.78 0.51Q299.34 0.51 296.61-0.81 293.87-2.12 291.95-4.53 290.04-6.93 289.03-10.23 288.01-13.53 288.01-17.5L288.01-17.5 288.01-18.02Q288.01-21.97 289.03-25.28 290.04-28.59 291.95-31.01 293.87-33.42 296.61-34.74 299.34-36.06 302.78-36.06L302.78-36.06Q306.42-36.06 309.18-34.74 311.94-33.42 313.81-31.01 315.67-28.59 316.63-25.28 317.58-21.97 317.58-18.02L317.58-18.02 317.58-17.5Q317.58-13.53 316.63-10.23 315.67-6.93 313.81-4.53 311.94-2.12 309.18-0.81 306.42 0.51 302.78 0.51ZM302.78-3.49L302.78-3.49Q306.32-3.49 308.51-5.25 310.69-7.01 311.72-10.17 312.74-13.33 312.74-17.5L312.74-17.5 312.74-18.07Q312.74-22.22 311.71-25.35 310.67-28.49 308.47-30.26 306.27-32.03 302.78-32.03L302.78-32.03Q299.58-32.03 297.36-30.25 295.14-28.47 293.99-25.33 292.85-22.19 292.85-18.07L292.85-18.07 292.85-17.5Q292.85-13.35 293.99-10.19 295.14-7.03 297.36-5.26 299.58-3.49 302.78-3.49ZM338.64 0.51L338.64 0.51Q333.71 0.51 330.1-1.77 326.49-4.05 324.53-8.11 322.58-12.16 322.58-17.48L322.58-17.48 322.58-18.07Q322.58-23.44 324.55-27.48 326.51-31.52 329.93-33.79 333.35-36.06 337.69-36.06L337.69-36.06Q341.84-36.06 344.74-35.11 347.63-34.16 349.68-32.54L349.68-32.54 349.68-25.37 345.72-25.37 345.21-30.52Q344.02-31.3 342.28-31.7 340.55-32.1 338.18-32.1L338.18-32.1Q335.13-32.1 332.69-30.35 330.25-28.59 328.83-25.45 327.41-22.31 327.41-18.12L327.41-18.12 327.41-17.48Q327.41-13.23 328.72-10.07 330.03-6.91 332.54-5.16 335.06-3.42 338.64-3.42L338.64-3.42Q341.09-3.42 342.77-3.85 344.45-4.27 345.75-4.96L345.75-4.96 345.75-13.31 338.94-13.55 338.94-17.09 350.56-17.09 350.56-3.32Q349.02-1.88 346.15-0.68 343.28 0.51 338.64 0.51ZM382.54 0L355.46 0 355.46-3.08 359.44-3.76 359.44-31.76 355.46-32.45 355.46-35.55 381.78-35.55 381.78-27 377.92-27 377.39-31.84 364.25-31.84 364.25-20.26 377.36-20.26 377.36-16.48 364.25-16.48 364.25-3.61 378.17-3.61 378.71-8.52 382.54-8.52 382.54 0ZM409.37 0L396.6 0 396.6-3.08 400.58-3.76 400.58-31.91 392.52-31.91 391.81-26.98 388.2-26.98 388.2-35.55 417.74-35.55 417.74-26.98 414.18-26.98 413.44-31.91 405.39-31.91 405.39-3.76 409.37-3.08 409.37 0ZM434.93 0L422.16 0 422.16-3.08 426.14-3.76 426.14-31.76 422.16-32.45 422.16-35.55 434.93-35.55 434.93-32.45 430.95-31.76 430.95-19.48 447.94-19.48 447.94-31.76 443.96-32.45 443.96-35.55 447.94-35.55 452.75-35.55 456.73-35.55 456.73-32.45 452.75-31.76 452.75-3.76 456.73-3.08 456.73 0 443.96 0 443.96-3.08 447.94-3.76 447.94-15.7 430.95-15.7 430.95-3.76 434.93-3.08 434.93 0ZM487.76 0L460.68 0 460.68-3.08 464.66-3.76 464.66-31.76 460.68-32.45 460.68-35.55 487-35.55 487-27 483.14-27 482.6-31.84 469.47-31.84 469.47-20.26 482.58-20.26 482.58-16.48 469.47-16.48 469.47-3.61 483.39-3.61 483.92-8.52 487.76-8.52 487.76 0ZM505.33 0L492.56 0 492.56-3.08 496.54-3.76 496.54-31.76 492.56-32.45 492.56-35.52 508.41-35.52Q512.29-35.52 514.96-34.36 517.64-33.2 519.03-31.01 520.42-28.81 520.42-25.63L520.42-25.63Q520.42-22.51 519.06-20.39 517.71-18.26 515.22-17.18 512.73-16.09 509.31-16.02L509.31-16.02 501.35-15.87 501.35-3.76 505.33-3.08 505.33 0ZM521.96 0L516.02 0 508.11-17.75 512.92-17.8 519.49-3.59 521.96-3.15 521.96 0ZM501.35-31.76L501.35-19.65 507.92-19.65Q511.95-19.65 513.78-21.19 515.61-22.73 515.61-25.68L515.61-25.68Q515.61-28.49 513.85-30.13 512.09-31.76 508.41-31.76L508.41-31.76 501.35-31.76Z" opacity="1" transform="matrix(1,0,0,1,0,0)" fill="#5a7443" class="slogan-text-1" data-fill-palette-color="secondary" id="text-1"></path></svg></g></svg></g></svg></g></svg></g><g transform="matrix(1,0,0,1,107.63516865457937,0)"><svg viewBox="0 0 182.22726269084117 181.32065939387184" height="181.32065939387184" width="182.22726269084117"><g><svg xmlns="http://www.w3.org/2000/svg" xmlns:xlink="http://www.w3.org/1999/xlink" version="1.1" x="0" y="0" viewBox="9.900000000000007 10.000000000000004 80.39999999999999 80" style="enable-background:new 0 0 100 100;" xml:space="preserve" height="181.32065939387184" width="182.22726269084117" class="icon-icon-0" data-fill-palette-color="accent" id="icon-0"><path d="M18.1 44.7v7.4h-6.8c-0.6 0-1 0.4-1 1s0.4 1 1 1h77.9c0.6 0 1-0.4 1-1s-0.4-1-1-1h-6.4v-6.7c4.1-0.5 7.3-4 7.3-8.2 0-3.4-2.1-6.3-5-7.6 1.2-1 1.9-2.4 1.9-4 0-2.9-2.3-5.2-5.2-5.2-2.9 0-5.2 2.3-5.2 5.2 0 1.6 0.8 3.1 1.9 4-2.9 1.3-5 4.2-5 7.6 0 4.2 3.2 7.7 7.3 8.2v6.7H62.4l0-7.4c3.4-1 5.9-7.4 5.9-15.6 0-9-3-15.8-6.9-15.8s-6.9 6.8-6.9 15.8c0 8.2 2.5 14.5 5.9 15.6l0 7.4H41.3l0-9.7c4.1-0.9 7.1-7.7 7.1-16.1 0-9.1-3.6-16.3-8.1-16.3-4.5 0-8.1 7.1-8.1 16.3 0 8.4 3 15.1 7.1 16.1l0 9.7H20.1v-7.4c4.5-0.5 8-4.3 8-8.9 0-3.7-2.3-6.9-5.5-8.3 1.3-1 2.2-2.6 2.2-4.4 0-3.1-2.5-5.6-5.6-5.6-3.1 0-5.6 2.5-5.6 5.6 0 1.8 0.9 3.4 2.2 4.4-3.2 1.4-5.5 4.5-5.5 8.3C10.2 40.4 13.7 44.2 18.1 44.7zM81.9 22.4c1.8 0 3.2 1.4 3.2 3.2s-1.4 3.2-3.2 3.2-3.2-1.4-3.2-3.2S80.1 22.4 81.9 22.4zM75.6 37.3c0-3.5 2.8-6.3 6.3-6.3s6.3 2.8 6.3 6.3-2.8 6.3-6.3 6.3S75.6 40.7 75.6 37.3zM56.5 29.2c0-8.1 2.6-13.8 4.9-13.8 2.3 0 4.9 5.6 4.9 13.8 0 7-1.9 12.1-3.9 13.4l0.1-20.2c0-0.6-0.4-1-1-1 0 0 0 0 0 0-0.6 0-1 0.4-1 1l-0.1 20.2C58.4 41.2 56.5 36.1 56.5 29.2zM34.2 26.4c0-6.7 2.5-14.3 6.1-14.3 3.6 0 6.1 7.5 6.1 14.3 0 6.1-2.1 12.8-5.1 14.1l0.1-19c0-0.6-0.4-1-1-1 0 0 0 0 0 0-0.6 0-1 0.4-1 1l-0.1 19C36.3 39.1 34.2 32.4 34.2 26.4zM19.1 19.5c2 0 3.6 1.6 3.6 3.6s-1.6 3.6-3.6 3.6-3.6-1.6-3.6-3.6S17.1 19.5 19.1 19.5zM19.1 28.9c3.8 0 7 3.1 7 7s-3.1 7-7 7-7-3.1-7-7S15.3 28.9 19.1 28.9z" fill="#5a7443" data-fill-palette-color="accent"></path><path d="M89.3 61.5c-0.6 0-1 0.4-1 1 0 2.5-2.1 4.6-4.6 4.6-2.5 0-4.6-2.1-4.6-4.6 0-0.6-0.4-1-1-1s-1 0.4-1 1c0 2.5-2.1 4.6-4.6 4.6-2.5 0-4.6-2.1-4.6-4.6 0-0.6-0.4-1-1-1s-1 0.4-1 1c0 2.5-2.1 4.6-4.6 4.6s-4.6-2.1-4.6-4.6c0-0.6-0.4-1-1-1s-1 0.4-1 1c0 2.5-2.1 4.6-4.6 4.6-2.5 0-4.6-2.1-4.6-4.6 0-0.6-0.4-1-1-1s-1 0.4-1 1c0 2.5-2.1 4.6-4.6 4.6s-4.6-2.1-4.6-4.6c0-0.6-0.4-1-1-1s-1 0.4-1 1c0 2.5-2.1 4.6-4.6 4.6-2.5 0-4.6-2.1-4.6-4.6 0-0.6-0.4-1-1-1s-1 0.4-1 1c0 2.5-2.1 4.6-4.6 4.6s-4.6-2.1-4.6-4.6c0-0.6-0.4-1-1-1s-1 0.4-1 1c0 3.6 2.9 6.6 6.6 6.6 2.3 0 4.4-1.2 5.6-3.1 1.2 1.9 3.2 3.1 5.6 3.1s4.4-1.2 5.6-3.1c1.2 1.9 3.2 3.1 5.6 3.1s4.4-1.2 5.6-3.1c1.2 1.9 3.2 3.1 5.6 3.1s4.4-1.2 5.6-3.1c1.2 1.9 3.2 3.1 5.6 3.1s4.4-1.2 5.6-3.1c1.2 1.9 3.2 3.1 5.6 3.1s4.4-1.2 5.6-3.1c1.2 1.9 3.2 3.1 5.6 3.1 3.6 0 6.6-2.9 6.6-6.6C90.3 61.9 89.9 61.5 89.3 61.5z" fill="#5a7443" data-fill-palette-color="accent"></path><path d="M89.3 72c-0.6 0-1 0.4-1 1 0 2.5-2.1 4.6-4.6 4.6-2.5 0-4.6-2.1-4.6-4.6 0-0.6-0.4-1-1-1s-1 0.4-1 1c0 2.5-2.1 4.6-4.6 4.6-2.5 0-4.6-2.1-4.6-4.6 0-0.6-0.4-1-1-1s-1 0.4-1 1c0 2.5-2.1 4.6-4.6 4.6s-4.6-2.1-4.6-4.6c0-0.6-0.4-1-1-1s-1 0.4-1 1c0 2.5-2.1 4.6-4.6 4.6-2.5 0-4.6-2.1-4.6-4.6 0-0.6-0.4-1-1-1s-1 0.4-1 1c0 2.5-2.1 4.6-4.6 4.6s-4.6-2.1-4.6-4.6c0-0.6-0.4-1-1-1s-1 0.4-1 1c0 2.5-2.1 4.6-4.6 4.6-2.5 0-4.6-2.1-4.6-4.6 0-0.6-0.4-1-1-1s-1 0.4-1 1c0 2.5-2.1 4.6-4.6 4.6s-4.6-2.1-4.6-4.6c0-0.6-0.4-1-1-1s-1 0.4-1 1c0 3.6 2.9 6.6 6.6 6.6 2.3 0 4.4-1.2 5.6-3.1 1.2 1.9 3.2 3.1 5.6 3.1s4.4-1.2 5.6-3.1c1.2 1.9 3.2 3.1 5.6 3.1s4.4-1.2 5.6-3.1c1.2 1.9 3.2 3.1 5.6 3.1s4.4-1.2 5.6-3.1c1.2 1.9 3.2 3.1 5.6 3.1s4.4-1.2 5.6-3.1c1.2 1.9 3.2 3.1 5.6 3.1s4.4-1.2 5.6-3.1c1.2 1.9 3.2 3.1 5.6 3.1 3.6 0 6.6-2.9 6.6-6.6C90.3 72.4 89.9 72 89.3 72z" fill="#5a7443" data-fill-palette-color="accent"></path><path d="M89.3 82.4c-0.6 0-1 0.4-1 1 0 2.5-2.1 4.6-4.6 4.6-2.5 0-4.6-2.1-4.6-4.6 0-0.6-0.4-1-1-1s-1 0.4-1 1c0 2.5-2.1 4.6-4.6 4.6-2.5 0-4.6-2.1-4.6-4.6 0-0.6-0.4-1-1-1s-1 0.4-1 1c0 2.5-2.1 4.6-4.6 4.6s-4.6-2.1-4.6-4.6c0-0.6-0.4-1-1-1s-1 0.4-1 1c0 2.5-2.1 4.6-4.6 4.6-2.5 0-4.6-2.1-4.6-4.6 0-0.6-0.4-1-1-1s-1 0.4-1 1c0 2.5-2.1 4.6-4.6 4.6s-4.6-2.1-4.6-4.6c0-0.6-0.4-1-1-1s-1 0.4-1 1c0 2.5-2.1 4.6-4.6 4.6-2.5 0-4.6-2.1-4.6-4.6 0-0.6-0.4-1-1-1s-1 0.4-1 1c0 2.5-2.1 4.6-4.6 4.6s-4.6-2.1-4.6-4.6c0-0.6-0.4-1-1-1s-1 0.4-1 1c0 3.6 2.9 6.6 6.6 6.6 2.3 0 4.4-1.2 5.6-3.1 1.2 1.9 3.2 3.1 5.6 3.1s4.4-1.2 5.6-3.1c1.2 1.9 3.2 3.1 5.6 3.1s4.4-1.2 5.6-3.1c1.2 1.9 3.2 3.1 5.6 3.1s4.4-1.2 5.6-3.1c1.2 1.9 3.2 3.1 5.6 3.1s4.4-1.2 5.6-3.1c1.2 1.9 3.2 3.1 5.6 3.1s4.4-1.2 5.6-3.1c1.2 1.9 3.2 3.1 5.6 3.1 3.6 0 6.6-2.9 6.6-6.6C90.3 82.9 89.9 82.4 89.3 82.4z" fill="#5a7443" data-fill-palette-color="accent"></path></svg></g></svg></g><g></g></svg></g><defs></defs></svg><rect width="256.1591234799265" height="247.2" fill="none" stroke="none" visibility="hidden"></rect></g></svg></g></svg>